<svg xmlns="http://www.w3.org/2000/svg" viewBox="0 0 160 160">
  <title>Collapsed case archive drawing</title>
  <g fill="none" stroke="#111" stroke-width="2" stroke-linecap="round" stroke-linejoin="round">
    <path d="m18 99 36-6 10 7 43-7 7 40-89 15-7-49ZM46 55l36-3 9 8 43-3 4 38-89 8-3-48ZM72 18l34 2 8 9 29 2-3 30-69-6 1-37Z"/>
    <path d="m31 112 63-10M59 68l64-4M83 31l48 4M39 124l40-7M67 79l37-4"/>
    <path d="m17 57 12 8M21 46l13 1M42 25l7 13M128 116l14 8M130 105l14-1M116 137l5 13"/>
  </g>
</svg>
