<svg xmlns="http://www.w3.org/2000/svg" viewBox="0 0 160 160">
  <title>Coffee meltdown archive drawing</title>
  <g fill="none" stroke="#111" stroke-width="2" stroke-linecap="round" stroke-linejoin="round">
    <path d="M39 59h72l-4 55c-1 9-7 13-16 13H56c-10 0-15-5-16-14l-1-54Z"/>
    <path d="M111 70h9c15 1 15 27-2 29h-8M25 133c21-5 83 5 112-2M49 48c-17-9 15-14-3-27M74 48c17-12-17-17 2-34M99 48c-17-9 15-15-3-28"/>
    <path d="m68 60 8 18-9 12 11 15-6 22M39 68c17-10 56 9 72-2"/>
    <path d="M40 69c17-8 53 8 70-2l-3 47c-1 8-7 12-16 12H76l2-21-11-15 9-12-8-18-28 9Z" fill="#111" stroke="none"/>
    <path d="M35 120c-7 3-5 11-12 13M117 116c8 1 9 10 17 11"/>
  </g>
</svg>
