<?xml version="1.0" encoding="UTF-8"?>
<svg xmlns="http://www.w3.org/2000/svg" viewBox="0 0 354 520" role="img" aria-label="L signature vector candidate">
  <title>L signature — automatically traced comparison candidate</title>
  <desc>Derived from l-signature-transparent.png. The PNG remains the archival signature source asset.</desc>
  <path d="M 31 6 L 34 6 L 34 7 L 35 7 L 35 12 L 36 12 L 36 14 L 37 14 L 37 16 L 38 16 L 38 17 L 39 17 L 39 18 L 40 18 L 40 21 L 41 21 L 41 26 L 42 26 L 42 34 L 41 34 L 41 42 L 40 42 L 40 64 L 41 64 L 41 68 L 42 68 L 42 71 L 43 71 L 43 74 L 44 74 L 44 80 L 43 80 L 43 83 L 44 83 L 44 98 L 45 98 L 45 116 L 46 116 L 46 122 L 47 122 L 47 138 L 46 138 L 46 149 L 45 149 L 45 154 L 44 154 L 44 159 L 43 159 L 43 169 L 44 169 L 44 192 L 45 192 L 45 199 L 46 199 L 46 204 L 47 204 L 47 208 L 46 208 L 46 222 L 47 222 L 47 228 L 46 228 L 46 230 L 45 230 L 45 231 L 44 231 L 44 236 L 45 236 L 45 237 L 44 237 L 44 240 L 45 240 L 45 242 L 46 242 L 46 255 L 45 255 L 45 262 L 44 262 L 44 264 L 43 264 L 43 269 L 42 269 L 42 274 L 41 274 L 41 279 L 40 279 L 40 285 L 39 285 L 39 286 L 38 286 L 38 287 L 37 287 L 37 293 L 38 293 L 38 294 L 39 294 L 39 297 L 38 297 L 38 298 L 37 298 L 37 301 L 39 301 L 39 302 L 40 302 L 40 309 L 39 309 L 39 316 L 40 316 L 40 327 L 39 327 L 39 332 L 38 332 L 38 337 L 37 337 L 37 345 L 36 345 L 36 346 L 37 346 L 37 357 L 36 357 L 36 360 L 35 360 L 35 381 L 36 381 L 36 382 L 37 382 L 37 385 L 38 385 L 38 389 L 39 389 L 39 399 L 40 399 L 40 403 L 41 403 L 41 419 L 40 419 L 40 420 L 41 420 L 41 421 L 40 421 L 40 435 L 39 435 L 39 436 L 38 436 L 38 439 L 37 439 L 37 442 L 36 442 L 36 447 L 35 447 L 35 473 L 36 473 L 36 476 L 40 476 L 40 477 L 42 477 L 42 478 L 45 478 L 45 479 L 47 479 L 47 480 L 57 480 L 57 481 L 61 481 L 61 480 L 73 480 L 73 479 L 79 479 L 79 478 L 84 478 L 84 477 L 89 477 L 89 476 L 92 476 L 92 475 L 95 475 L 95 474 L 99 474 L 99 473 L 103 473 L 103 472 L 105 472 L 105 471 L 108 471 L 108 470 L 117 470 L 117 469 L 120 469 L 120 468 L 122 468 L 122 467 L 124 467 L 124 466 L 129 466 L 129 465 L 132 465 L 132 464 L 136 464 L 136 463 L 140 463 L 140 462 L 144 462 L 144 461 L 146 461 L 146 460 L 148 460 L 148 459 L 151 459 L 151 458 L 153 458 L 153 457 L 156 457 L 156 456 L 158 456 L 158 455 L 160 455 L 160 454 L 162 454 L 162 453 L 163 453 L 163 452 L 165 452 L 165 451 L 166 451 L 166 450 L 168 450 L 168 449 L 170 449 L 170 448 L 174 448 L 174 447 L 177 447 L 177 446 L 182 446 L 182 445 L 185 445 L 185 444 L 189 444 L 189 443 L 193 443 L 193 444 L 202 444 L 202 445 L 206 445 L 206 446 L 210 446 L 210 447 L 212 447 L 212 448 L 214 448 L 214 449 L 218 449 L 218 450 L 220 450 L 220 451 L 225 451 L 225 452 L 229 452 L 229 453 L 230 453 L 230 455 L 231 455 L 231 453 L 234 453 L 234 452 L 247 452 L 247 451 L 250 451 L 250 450 L 261 450 L 261 449 L 264 449 L 264 448 L 267 448 L 267 447 L 269 447 L 269 446 L 270 446 L 270 445 L 271 445 L 271 444 L 272 444 L 272 443 L 274 443 L 274 442 L 276 442 L 276 441 L 277 441 L 277 440 L 279 440 L 279 439 L 280 439 L 280 438 L 281 438 L 281 437 L 282 437 L 282 436 L 284 436 L 284 435 L 286 435 L 286 434 L 289 434 L 289 433 L 291 433 L 291 432 L 293 432 L 293 431 L 295 431 L 295 430 L 296 430 L 296 429 L 299 429 L 299 428 L 303 428 L 303 427 L 305 427 L 305 426 L 306 426 L 306 424 L 307 424 L 307 421 L 309 421 L 309 420 L 311 420 L 311 419 L 313 419 L 313 418 L 315 418 L 315 417 L 316 417 L 316 416 L 317 416 L 317 415 L 319 415 L 319 414 L 323 414 L 323 413 L 331 413 L 331 414 L 335 414 L 335 415 L 340 415 L 340 414 L 343 414 L 343 415 L 344 415 L 344 416 L 345 416 L 345 417 L 346 417 L 346 425 L 347 425 L 347 427 L 348 427 L 348 431 L 347 431 L 347 434 L 346 434 L 346 436 L 344 436 L 344 437 L 345 437 L 345 440 L 335 440 L 335 439 L 332 439 L 332 440 L 326 440 L 326 441 L 324 441 L 324 442 L 322 442 L 322 443 L 321 443 L 321 444 L 319 444 L 319 445 L 317 445 L 317 446 L 315 446 L 315 447 L 313 447 L 313 448 L 311 448 L 311 449 L 307 449 L 307 450 L 305 450 L 305 453 L 303 453 L 303 454 L 300 454 L 300 455 L 297 455 L 297 456 L 295 456 L 295 457 L 294 457 L 294 458 L 293 458 L 293 459 L 291 459 L 291 460 L 289 460 L 289 461 L 288 461 L 288 462 L 283 462 L 283 463 L 279 463 L 279 464 L 278 464 L 278 465 L 276 465 L 276 466 L 274 466 L 274 467 L 273 467 L 273 468 L 272 468 L 272 469 L 271 469 L 271 470 L 267 470 L 267 471 L 264 471 L 264 472 L 262 472 L 262 473 L 259 473 L 259 474 L 256 474 L 256 475 L 254 475 L 254 476 L 252 476 L 252 477 L 246 477 L 246 476 L 243 476 L 243 475 L 235 475 L 235 474 L 217 474 L 217 473 L 214 473 L 214 472 L 210 472 L 210 471 L 209 471 L 209 470 L 208 470 L 208 469 L 205 469 L 205 468 L 197 468 L 197 467 L 181 467 L 181 468 L 178 468 L 178 469 L 177 469 L 177 470 L 174 470 L 174 471 L 173 471 L 173 472 L 171 472 L 171 473 L 170 473 L 170 474 L 168 474 L 168 475 L 166 475 L 166 476 L 164 476 L 164 477 L 161 477 L 161 478 L 158 478 L 158 479 L 155 479 L 155 480 L 152 480 L 152 481 L 150 481 L 150 482 L 148 482 L 148 483 L 143 483 L 143 484 L 140 484 L 140 485 L 137 485 L 137 486 L 135 486 L 135 487 L 133 487 L 133 488 L 126 488 L 126 489 L 124 489 L 124 490 L 122 490 L 122 491 L 120 491 L 120 492 L 118 492 L 118 493 L 113 493 L 113 494 L 104 494 L 104 495 L 100 495 L 100 496 L 96 496 L 96 497 L 93 497 L 93 498 L 87 498 L 87 499 L 83 499 L 83 500 L 79 500 L 79 501 L 77 501 L 77 502 L 73 502 L 73 503 L 72 503 L 72 504 L 71 504 L 71 505 L 63 505 L 63 504 L 57 504 L 57 505 L 56 505 L 56 504 L 39 504 L 39 505 L 35 505 L 35 506 L 33 506 L 33 507 L 31 507 L 31 508 L 30 508 L 30 510 L 26 510 L 26 508 L 27 508 L 27 507 L 28 507 L 28 506 L 27 506 L 27 505 L 25 505 L 25 504 L 20 504 L 20 503 L 15 503 L 15 502 L 13 502 L 13 499 L 12 499 L 12 494 L 13 494 L 13 486 L 14 486 L 14 481 L 15 481 L 15 476 L 16 476 L 16 475 L 17 475 L 17 473 L 16 473 L 16 472 L 15 472 L 15 466 L 14 466 L 14 444 L 15 444 L 15 441 L 16 441 L 16 438 L 17 438 L 17 435 L 18 435 L 18 426 L 19 426 L 19 404 L 18 404 L 18 402 L 17 402 L 17 393 L 18 393 L 18 388 L 17 388 L 17 383 L 16 383 L 16 382 L 17 382 L 17 380 L 18 380 L 18 375 L 17 375 L 17 371 L 18 371 L 18 367 L 17 367 L 17 365 L 16 365 L 16 363 L 17 363 L 17 357 L 18 357 L 18 351 L 17 351 L 17 345 L 16 345 L 16 344 L 17 344 L 17 333 L 18 333 L 18 330 L 19 330 L 19 326 L 20 326 L 20 324 L 19 324 L 19 322 L 18 322 L 18 321 L 17 321 L 17 319 L 16 319 L 16 314 L 17 314 L 17 312 L 18 312 L 18 311 L 19 311 L 19 304 L 18 304 L 18 303 L 19 303 L 19 288 L 20 288 L 20 283 L 21 283 L 21 280 L 22 280 L 22 276 L 23 276 L 23 257 L 24 257 L 24 239 L 25 239 L 25 231 L 26 231 L 26 221 L 27 221 L 27 210 L 26 210 L 26 197 L 27 197 L 27 195 L 26 195 L 26 193 L 25 193 L 25 191 L 24 191 L 24 185 L 25 185 L 25 172 L 24 172 L 24 159 L 25 159 L 25 148 L 26 148 L 26 130 L 25 130 L 25 129 L 26 129 L 26 108 L 25 108 L 25 102 L 24 102 L 24 88 L 23 88 L 23 80 L 22 80 L 22 71 L 21 71 L 21 62 L 20 62 L 20 33 L 21 33 L 21 29 L 22 29 L 22 14 L 23 14 L 23 12 L 24 12 L 24 10 L 27 10 L 27 9 L 29 9 L 29 8 L 30 8 L 30 7 L 31 7 Z M 26 13 L 25 13 L 25 14 L 24 14 L 24 20 L 23 20 L 23 21 L 24 21 L 24 25 L 25 25 L 25 26 L 27 26 L 27 25 L 28 25 L 28 20 L 27 20 L 27 18 L 26 18 L 26 16 L 27 16 L 27 14 L 26 14 Z M 29 243 L 28 243 L 28 245 L 29 245 Z M 21 393 L 20 393 L 20 394 L 21 394 Z M 320 427 L 319 427 L 319 428 L 317 428 L 317 429 L 320 429 L 320 428 L 323 428 L 323 427 Z M 316 429 L 315 429 L 315 431 L 316 431 L 316 430 L 317 430 L 317 429 Z" fill="#111111" fill-rule="evenodd"/>
</svg>
