<svg xmlns="http://www.w3.org/2000/svg" viewBox="0 0 160 160">
  <title>Overstocked fish archive drawing</title>
  <g fill="none" stroke="#111" stroke-width="2" stroke-linecap="round" stroke-linejoin="round">
    <path d="M23 47c16-17 41-18 59-3l12-9-2 15 3 14-13-9c-18 15-43 12-59-8Z"/>
    <path d="M67 82c18-18 45-19 64-2l13-10-3 16 3 15-13-10c-19 16-47 13-64-9Z"/>
    <path d="M20 113c19-20 49-21 70-3l14-10-3 16 4 16-15-11c-20 17-51 14-70-8Z"/>
    <circle cx="34" cy="45" r="2" fill="#111"/><circle cx="81" cy="80" r="2" fill="#111"/><circle cx="35" cy="111" r="2" fill="#111"/>
    <path d="M48 36v22M94 70v24M51 101v25"/>
  </g>
</svg>
